<svg xmlns="http://www.w3.org/2000/svg" viewBox="0 0 18 18" width="18" height="18" aria-label="Summary">
  <path
     d="m 7.0135245,12.06965 a 0.77369768,0.77369768 0 0 1 0,1.093492 L 3.4029353,16.77373 a 0.77369768,0.77369768 0 0 1 -1.0934926,0 L 0.24624884,14.710538 A 0.77369768,0.77369768 0 1 1 1.3397416,13.617045 L 2.856189,15.133491 5.9200317,12.06965 a 0.77369768,0.77369768 0 0 1 1.0934928,0 z"
     style="stroke-width:1.03161" />
  <path
     d="m 10.795573,15.5 a 0.65494792,0.75 0 0 0 0,1.5 h 6.549479 a 0.65494792,0.75 0 0 0 0,-1.5 z"
     style="stroke-width:0.934486" />
  <path
     d="m 10.81901,8.2499998 a 0.65494814,0.75000025 0 0 0 0,1.5000005 h 6.549479 a 0.65494814,0.75000025 0 0 0 0,-1.5000005 z"
     style="stroke-width:0.934486" />
  <path
     d="m 10.795573,0.9999998 a 0.65494792,0.75 0 0 0 0,1.5 h 6.549479 a 0.65494792,0.75 0 0 0 0,-1.5 z"
     style="stroke-width:0.934486" />
  <path
     d="M 0,2.0357139 A 1.0357142,1.0357142 0 0 1 1.0357142,0.9999998 H 6.2142859 A 1.0357142,1.0357142 0 0 1 7.25,2.0357139 V 7.2142857 A 1.0357142,1.0357142 0 0 1 6.2142859,8.2499998 H 1.0357142 A 1.0357142,1.0357142 0 0 1 0,7.2142857 Z M 1.5535714,6.6964284 H 5.6964286 V 2.5535712 H 1.5535714 Z"
     style="stroke-width:1.03571" />
</svg>
