<svg xmlns="http://www.w3.org/2000/svg" width="18.5" height="18.5" viewBox="0 0 18.5 18.5" aria-label="Terminology">
  <path d="M 0,0.75000154 C 0,0.33578798 0.3357864,1.5372e-6 0.75,1.5372e-6 h 4.747 c 1.566,0 2.945,0.8000000028 3.751,2.0139999628 C 10.081162,0.75526075 11.490501,-0.00124463 13,1.5372e-6 h 4.75 c 0.414214,0 0.75,0.3357864428 0.75,0.7500000028 V 15.813002 c -0.0011,0.415711 -0.339291,0.75166 -0.755,0.75 l -4.932,-0.052 c -0.802711,-0.0057 -1.574222,0.310545 -2.142,0.878 l -0.89,0.891 c -0.292932,0.29312 -0.768068,0.29312 -1.061,0 l -0.902,-0.901 c -0.562229,-0.563021 -1.325328,-0.87927 -2.121,-0.879 H 0.75 c -0.4142136,0 -0.75,-0.335786 -0.75,-0.75 z M 10,15.982002 c 0.803214,-0.63525 1.798964,-0.977748 2.823,-0.971 l 4.177,0.047 V 1.5000015 h -4 c -1.656854,0 -3,1.3431458 -3,3 z M 8.497,4.4970015 c -0.0017,-1.6556826 -1.3443166,-2.9970008 -3,-2.997 H 1.5 V 15.000002 h 4.197 c 1.018,0 2.006,0.346 2.803,0.98 z" />
</svg>
