<?xml version="1.0" encoding="UTF-8" standalone="no"?>
<svg xmlns="http://www.w3.org/2000/svg" width="24" height="24" viewBox="0 0 24 24" aria-label="Warning">
  <path d="m 13.000066,17.252375 a 1,1 0 1 1 -2,0 1,1 0 0 1 2,0 z m -0.25,-8.25 a 0.75,0.75 0 0 0 -1.5,0 v 4.5 a 0.75,0.75 0 0 0 1.5,0 z" />
  <path
     d="m 9.7368505,2.6855147 c 1.0071525,-1.72248599 3.5192845,-1.72248599 4.5264385,0 l 9.378137,16.0392933 c 1.007153,1.724555 -0.251004,3.881542 -2.264266,3.881542 H 2.6229786 c -2.01430729,0 -3.27141895,-2.156987 -2.26426537,-3.881542 z m 3.1689245,0.7769291 a 1.0479417,1.0365952 0 0 0 -1.811412,0 L 1.7172724,19.501737 a 1.0479417,1.0365952 0 0 0 0.9057062,1.552824 H 21.37716 a 1.0479417,1.0365952 0 0 0 0.905707,-1.55179 L 12.905775,3.4614093 Z"
     style="stroke-width:1.5" />
</svg>
