<?xml version="1.0" encoding="UTF-8"?>
<svg width="24mm" height="24mm" version="1.1" viewBox="0 0 24 24" xmlns="http://www.w3.org/2000/svg">
 <g transform="matrix(1.8697 0 0 1.8697 -2.0107 7.1099)" stroke-width=".26458" aria-label="Aa">
  <g transform="matrix(1.8871 0 0 1.8871 -3.1543 9.6778)" stroke-width=".037442" aria-label="Aa">
   <path d="m3.4008-2.0045-0.31133-0.039624c-0.11887-0.016982-0.12453-0.022642-0.045285-0.27737l0.22076-0.70191h1.3076l0.2151 0.70191c0.079248 0.25473 0.073588 0.26039-0.045285 0.27737l-0.31133 0.039624v0.1585h1.5623v-0.1585l-0.31133-0.039624c-0.11321-0.016982-0.12453-0.022643-0.20378-0.27737l-1.0868-3.3737h-0.48681l-1.0812 3.3737c-0.079248 0.25473-0.079248 0.26039-0.20378 0.27737l-0.31133 0.039624v0.1585h1.0925zm-0.067927-1.217 0.59436-1.8793 0.58304 1.8793z"/>
   <path d="m8.9765-1.9875-0.10189-0.14718c-0.09057 0.084909-0.1585 0.11887-0.22642 0.11887-0.084909 0-0.16416-0.050945-0.16416-0.43587v-1.3076c0-0.5321-0.22642-1.0132-1.0982-1.0132-0.7755 0-1.1378 0.46983-1.0472 0.98494l0.62267 0.09057c-0.12453-0.71324 0.12453-0.87739 0.41322-0.87739 0.28303 0 0.45851 0.19246 0.45851 0.81513v0.45851h-0.51511c-0.82079 0-1.1038 0.30001-1.1038 0.7472 0 0.43587 0.25473 0.76418 0.7755 0.76418 0.31133 0 0.61701-0.11887 0.86607-0.39058 0.067927 0.24907 0.28303 0.39058 0.59436 0.39058 0.24341 0 0.4019-0.084909 0.52644-0.19812zm-1.7378-0.10189c-0.23775 0-0.35662-0.17548-0.35662-0.47549 0-0.36794 0.15284-0.53776 0.52644-0.53776h0.42454v0.65097c-0.2151 0.28303-0.4019 0.36228-0.59436 0.36228z"/>
  </g>
 </g>
</svg>
