<?xml version="1.0" encoding="UTF-8"?>
<svg width="24" height="24" version="1.1" viewBox="0 0 6.35 6.35" xmlns="http://www.w3.org/2000/svg">
 <g transform="translate(-49.779 -68.941)" stroke-width=".26458">
  <text x="46.845165" y="82.677826" fill="#000000" font-family="'Inria Sans'" font-size="10.583px" style="line-height:1.25" xml:space="preserve"><tspan x="46.845165" y="82.677826" font-family="'PragmataPro Mono'" stroke-width=".26458"/></text>
  <g aria-label="Aa">
   <g transform="matrix(.56433 0 0 .56433 21.813 31.15)">
    <path d="m54.488 76.138h0.9525l-2.4024-7.1966h-0.86783l-2.3918 7.1966h0.89958l0.53975-1.6722h2.7305zm-2.6035-3.7465 0.6985-2.2225 0.68791 2.2225 0.40217 1.2382h-2.1907z"/>
    <path d="m60.426 76.191h0.15875v-0.79375h-0.11642c-0.381 0-0.47625-0.24342-0.47625-0.5715v-2.2648c0-0.9525-0.34925-1.7674-1.8203-1.7674-0.60325 0-1.1853 0.15875-1.8309 0.45508l0.27516 0.71966c0.55033-0.24342 1.0477-0.37042 1.5134-0.37042 0.66675 0 1.016 0.24342 1.016 1.0266v0.70908c-0.46566-0.07408-0.93133-0.127-1.3123-0.127-1.3017 0-1.7251 0.64558-1.7251 1.5028 0 0.86783 0.42333 1.5346 1.3441 1.5346 0.56092 0 1.1007-0.21167 1.7886-0.8255 0.14817 0.4445 0.53975 0.77258 1.1853 0.77258zm-3.4607-1.4922c0-0.53975 0.26458-0.80433 0.91016-0.80433 0.34925 0 0.81491 0.04233 1.27 0.11642v0.66675c-0.70908 0.66675-1.1642 0.8255-1.524 0.8255-0.42333 0-0.65616-0.3175-0.65616-0.80433z"/>
   </g>
  </g>
 </g>
</svg>
